<?xml version="1.0" standalone="no"?>
<!DOCTYPE svg PUBLIC "-//W3C//DTD SVG 20010904//EN"
 "http://www.w3.org/TR/2001/REC-SVG-20010904/DTD/svg10.dtd">
<svg version="1.0" xmlns="http://www.w3.org/2000/svg"
 width="254.000000pt" height="254.000000pt" viewBox="0 0 254.000000 254.000000"
 preserveAspectRatio="xMidYMid meet">
<metadata>
Created by potrace 1.14, written by Peter Selinger 2001-2017
</metadata>
<g transform="translate(0.000000,254.000000) scale(0.100000,-0.100000)"
fill="#000000" stroke="none">
<path d="M413 1780 c-36 -22 -85 -100 -104 -167 l-12 -45 -41 8 c-23 5 -76 8
-118 9 -72 0 -79 -2 -107 -30 -35 -33 -40 -74 -16 -131 13 -32 59 -97 92 -132
18 -18 18 -18 -26 -68 -69 -78 -97 -165 -71 -215 26 -47 121 -65 220 -43 49
12 56 11 68 -3 6 -9 12 -23 12 -31 0 -30 53 -122 87 -152 31 -28 42 -31 75
-27 22 3 49 14 60 24 28 25 63 89 83 150 18 56 13 55 106 34 80 -18 166 4 192
49 32 53 12 115 -66 211 l-45 55 32 35 c72 83 89 114 90 173 1 54 -21 82 -78
97 -38 10 -113 8 -182 -6 -30 -7 -31 -6 -54 57 -29 80 -66 133 -107 153 -40
19 -51 19 -90 -5z m94 -32 c24 -17 41 -43 63 -95 17 -39 30 -78 30 -85 0 -7
-31 -25 -69 -39 l-69 -26 -48 20 c-27 10 -59 23 -71 28 l-22 8 19 56 c25 72
67 135 100 148 25 9 33 8 67 -15z m-246 -206 c25 -10 25 -10 16 -82 l-10 -71
-58 -45 c-31 -24 -60 -44 -64 -44 -10 0 -58 59 -87 109 -42 71 -34 121 22 145
21 8 150 0 181 -12z m620 -10 c34 -42 6 -123 -69 -204 -29 -31 -38 -34 -56
-15 -11 11 -66 54 -86 67 -7 5 -32 152 -26 158 2 1 16 5 32 8 16 3 30 7 32 9
2 2 38 3 79 2 65 -2 77 -5 94 -25z m-465 -44 c3 -4 -11 -16 -33 -27 -21 -12
-48 -28 -61 -38 l-23 -16 6 54 c4 29 8 56 11 60 4 7 87 -21 100 -33z m208 -39
l4 -39 -32 18 c-17 11 -46 28 -63 38 l-33 18 53 22 52 22 8 -20 c4 -11 9 -38
11 -59z m-27 -55 c39 -23 40 -27 38 -133 -2 -95 2 -89 -104 -148 l-64 -37 -63
33 c-107 55 -114 66 -114 165 0 99 3 104 109 160 l66 35 50 -28 c28 -16 64
-37 82 -47z m-337 -125 c0 -79 4 -78 -62 -20 l-27 24 37 33 c20 18 40 34 45
34 4 0 7 -32 7 -71z m456 36 l39 -34 -40 -35 c-22 -20 -42 -35 -45 -36 -3 0
-5 31 -5 70 0 38 3 70 6 70 3 0 23 -16 45 -35z m-513 -97 c29 -24 54 -44 56
-45 2 -1 9 -36 16 -78 l11 -75 -40 -11 c-23 -6 -68 -12 -101 -12 -110 -2 -143
49 -92 142 19 36 86 121 95 121 2 0 27 -19 55 -42z m621 -3 c43 -52 79 -127
74 -157 -7 -49 -85 -74 -178 -56 -25 5 -53 10 -63 11 -15 1 -17 8 -11 47 14
102 17 109 74 154 30 25 58 45 61 45 4 1 23 -19 43 -44z m-458 -110 l58 -34
-49 -21 c-26 -11 -52 -17 -56 -13 -9 10 -23 103 -16 103 3 0 32 -16 63 -35z
m259 13 c-3 -13 -7 -36 -9 -52 -3 -16 -7 -30 -9 -32 -6 -6 -97 29 -97 37 0 7
99 67 113 68 4 1 5 -9 2 -21z m-90 -94 c36 -14 65 -29 65 -33 0 -30 -47 -135
-74 -164 -62 -68 -118 -42 -171 77 -35 80 -31 93 35 121 71 29 69 29 145 -1z"/>
<path d="M442 1335 c-77 -86 -33 -215 49 -145 l24 20 -31 -17 c-28 -15 -34
-15 -49 -3 -23 19 -13 82 21 133 35 53 72 49 43 -5 -9 -16 -8 -19 2 -16 14 5
31 53 21 62 -15 16 -53 3 -80 -29z"/>
<path d="M1145 1320 c-50 -20 -96 -106 -89 -165 4 -38 64 -89 64 -55 0 6 -6
10 -14 10 -49 0 -19 150 40 193 33 25 48 13 29 -23 -17 -34 -18 -40 -6 -40 12
0 34 67 26 80 -7 12 -22 12 -50 0z"/>
<path d="M1432 1318 c-7 -9 -18 -33 -26 -54 -7 -21 -17 -39 -22 -39 -32 -2
-61 -19 -76 -45 -9 -16 -23 -30 -31 -30 -30 0 -45 49 -18 58 11 4 12 -2 7 -24
-6 -22 -5 -26 4 -18 18 18 8 49 -15 49 -16 0 -20 -7 -21 -35 -2 -55 -3 -60
-15 -60 -8 0 -10 12 -6 35 7 42 -2 45 -24 7 -13 -23 -13 -30 -3 -40 18 -16 39
-15 54 3 7 8 20 15 30 15 10 0 20 -7 24 -15 8 -21 26 -19 53 7 l23 21 0 -21
c0 -24 19 -29 38 -10 9 9 15 9 24 0 7 -7 23 -11 38 -11 23 2 23 2 3 6 -32 6
-29 26 7 41 45 20 55 77 11 65 -22 -6 -49 -32 -65 -65 -6 -12 -17 -23 -23 -26
-22 -7 -15 36 18 109 30 69 35 106 11 77z m-69 -151 c-11 -17 -26 -33 -35 -35
-25 -5 -10 45 20 69 33 26 40 10 15 -34z m125 16 c-15 -15 -30 -25 -32 -22
-10 9 25 49 42 49 13 0 11 -6 -10 -27z"/>
<path d="M1663 1323 c-13 -2 -23 -8 -23 -13 0 -4 9 -6 19 -3 18 4 16 -3 -15
-86 -37 -99 -44 -142 -20 -122 8 7 17 28 21 48 3 19 10 43 15 52 4 9 13 36 20
60 6 23 14 49 17 57 3 8 1 13 -3 13 -5 -1 -19 -4 -31 -6z"/>
<path d="M1728 1314 c12 -8 22 -25 22 -38 0 -23 -28 -56 -48 -56 -6 0 -14 -4
-17 -10 -4 -7 3 -7 19 0 14 5 26 6 26 2 1 -19 40 43 40 64 0 22 -32 54 -54 54
-6 0 0 -7 12 -16z"/>
<path d="M1807 1285 c-31 -49 -59 -138 -50 -161 6 -16 29 -19 38 -4 4 6 1 9
-7 8 -19 -4 -12 42 11 67 27 30 51 80 51 110 0 36 -11 31 -43 -20z m13 -45
c-12 -23 -24 -39 -27 -36 -6 6 11 48 31 74 19 26 17 2 -4 -38z"/>
<path d="M2132 1307 c-18 -19 -45 -73 -77 -152 -4 -11 -9 -32 -11 -47 -2 -15
-4 -31 -5 -35 -3 -20 2 -33 14 -33 18 0 47 53 47 87 0 23 4 28 26 29 17 1 24
-2 20 -11 -4 -12 11 -35 25 -35 3 0 4 11 2 24 -3 13 2 38 11 55 21 39 8 40
-26 1 -26 -30 -51 -32 -61 -6 -3 7 12 33 34 57 53 60 54 123 1 66z m12 -36
c-10 -17 -22 -31 -27 -31 -5 0 -3 10 5 23 8 12 18 28 22 35 5 7 10 11 13 8 3
-2 -3 -18 -13 -35z m-65 -193 c-11 -20 -14 -21 -17 -5 -2 9 2 34 10 55 l13 37
3 -32 c2 -18 -2 -42 -9 -55z"/>
<path d="M2377 1298 c-32 -43 -69 -145 -62 -169 7 -20 40 -26 50 -9 4 6 13 5
25 -2 15 -10 23 -9 38 5 17 16 20 16 25 2 9 -23 31 -18 58 12 17 20 18 23 3
10 -49 -41 -49 1 0 108 14 32 26 62 26 67 0 23 -29 -16 -49 -65 -12 -29 -26
-60 -32 -70 -5 -10 -8 -21 -5 -25 2 -4 -7 -15 -19 -25 -16 -11 -26 -13 -30 -6
-10 16 15 68 36 74 10 4 19 11 19 16 0 21 -56 -24 -78 -62 -12 -21 -26 -39
-31 -39 -17 0 -18 39 -2 57 39 44 78 138 61 148 -5 3 -20 -9 -33 -27z m2 -58
c-30 -54 -35 -44 -7 14 12 26 24 43 26 37 2 -6 -7 -29 -19 -51z"/>
<path d="M2195 1261 c-6 -11 9 -23 19 -14 9 9 7 23 -3 23 -6 0 -12 -4 -16 -9z"/>
<path d="M2290 1214 c0 -12 -7 -27 -15 -34 -8 -7 -15 -17 -15 -22 0 -13 28 10
40 32 5 9 5 22 -1 31 -7 11 -9 9 -9 -7z"/>
<path d="M1864 1209 c-23 -12 -54 -59 -54 -83 0 -18 45 -23 55 -5 4 6 0 9 -11
7 -26 -4 -20 30 11 61 21 22 26 23 41 10 15 -12 17 -12 12 1 -6 19 -27 22 -54
9z"/>
<path d="M2254 1212 c-6 -4 -23 -27 -39 -51 -19 -32 -23 -42 -11 -38 9 4 16 2
16 -3 0 -6 15 -10 33 -9 29 1 28 2 -11 15 -8 2 -10 9 -5 16 4 7 8 19 9 26 2 8
10 22 20 33 17 19 10 26 -12 11z"/>
<path d="M1951 1171 c-11 -21 -27 -41 -36 -45 -14 -5 -16 -1 -10 27 l7 32 -21
-21 c-14 -13 -19 -27 -15 -37 8 -21 24 -22 50 -3 13 10 23 11 31 4 8 -6 19 -6
32 2 20 10 20 9 9 -15 -6 -14 -14 -23 -16 -20 -8 8 -42 -26 -42 -42 0 -7 6
-13 14 -13 16 0 46 26 46 40 0 5 10 19 23 31 12 12 16 18 8 14 -11 -6 -13 -4
-8 9 16 41 19 66 8 66 -6 0 -11 -6 -11 -13 0 -8 -11 -24 -25 -37 l-25 -23 0
22 c0 12 5 31 10 42 7 13 7 19 1 19 -6 0 -19 -17 -30 -39z m18 -112 c-19 -12
-24 -2 -8 17 9 11 14 13 17 4 3 -7 -2 -16 -9 -21z"/>
<path d="M1511 1137 c-13 -21 -12 -21 5 -5 10 10 16 20 13 22 -3 3 -11 -5 -18
-17z"/>
<path d="M1140 1110 c-8 -5 -10 -10 -5 -10 6 0 17 5 25 10 8 5 11 10 5 10 -5
0 -17 -5 -25 -10z"/>
</g>
</svg>
